<svg width="275" height="640" viewBox="0 0 275 640" fill="none" xmlns="http://www.w3.org/2000/svg">
<path d="M163 594.152L163 640L255 640L255 597.679C255 579.541 223.882 581.556 223.882 596.671L223.882 610.274C223.882 630.427 194.118 627.908 194.118 610.274L194.118 579.037C194.118 561.907 163 561.403 163 579.037L163 594.152Z" fill="#7F82BC"/>
<circle cx="57" cy="217" r="15" fill="#B4B5D4" fill-opacity="0.48"/>
<circle cx="255" cy="431" r="20" fill="#7F82BC"/>
<circle cx="19.5" cy="396.5" r="7.5" fill="#7F82BC"/>
<path fill-rule="evenodd" clip-rule="evenodd" d="M0 0V67.8265V93.154C0 122.703 38.5588 121.858 38.5588 93.154V40.8106C38.5588 11.2619 75.4412 7.0407 75.4412 40.8106V63.6053C75.4412 88.9327 114 92.3097 114 61.9168V0H0Z" fill="#7F82BC"/>
</svg>
