<svg width="106" height="131" viewBox="0 0 106 131" fill="none" xmlns="http://www.w3.org/2000/svg">
<path d="M12.2324 123.693C9.11238 123.693 6.68238 122.843 4.94238 121.143C3.22238 119.443 2.36238 117.033 2.36238 113.913V102.273H8.30238V113.733C8.30238 117.093 9.63238 118.773 12.2924 118.773C14.9324 118.773 16.2524 117.093 16.2524 113.733V102.273H22.1024V113.913C22.1024 117.033 21.2324 119.443 19.4924 121.143C17.7724 122.843 15.3524 123.693 12.2324 123.693ZM45.0864 123.273L45.0264 112.143L39.6264 121.203H36.9864L31.6164 112.443V123.273H26.1264V102.273H31.0164L38.3964 114.393L45.5964 102.273H50.4864L50.5464 123.273H45.0864ZM62.8494 115.653L60.6294 118.023V123.273H54.7494V102.273H60.6294V111.003L68.7594 102.273H75.2994L66.7194 111.573L75.7494 123.273H68.8494L62.8494 115.653ZM96.268 123.273L96.208 112.143L90.808 121.203H88.168L82.798 112.443V123.273H77.308V102.273H82.198L89.578 114.393L96.778 102.273H101.668L101.728 123.273H96.268Z" fill="url(#paint0_linear)"/>
<path fill-rule="evenodd" clip-rule="evenodd" d="M23.8026 80.8626C15.1809 81.7489 7.12337 82.7964 5.91473 83.2799C4.62552 83.7633 3.49745 84.1662 3.25572 84.1662C1.08018 84.1662 7.6874 70.146 12.9248 63.7805L16.6313 59.1877L13.65 55.4006C10.1047 50.7272 6.63992 43.556 4.86725 37.0293C2.93343 29.7775 2.53054 14.2264 4.06149 6.89397C4.70609 3.59036 5.51185 0.77021 5.673 0.609058C5.83415 0.367331 8.0097 1.65654 10.427 3.42921C19.532 10.1976 34.5997 17.4494 44.994 20.189L49.8286 21.3976L53.1322 18.3357C59.0142 12.9372 65.2185 8.58606 71.02 5.84649C81.4949 0.931361 92.5337 1.97885 99.8662 8.50549L103.17 11.4062L99.3827 12.2926C92.2114 14.1458 86.5711 21.5588 85.5236 30.5833C83.3481 49.5992 75.5322 63.9417 63.6876 70.9518C54.1797 76.5921 46.0415 78.6065 23.8026 80.8626Z" fill="url(#paint1_linear)"/>
<defs>
<linearGradient id="paint0_linear" x1="-12.6004" y1="136.973" x2="119.571" y2="88.2485" gradientUnits="userSpaceOnUse">
<stop stop-color="white"/>
<stop offset="1" stop-color="white"/>
</linearGradient>
<linearGradient id="paint1_linear" x1="-39.3287" y1="131.535" x2="121.538" y2="-17.3128" gradientUnits="userSpaceOnUse">
<stop stop-color="white"/>
<stop offset="1" stop-color="white"/>
</linearGradient>
</defs>
</svg>
